<svg width="40" height="34" viewBox="0 0 40 34" fill="none" xmlns="http://www.w3.org/2000/svg">
<path d="M12 0C12.1751 -2.84879e-05 12.349 0.0351794 12.5107 0.103516C12.6724 0.171848 12.8196 0.272244 12.9434 0.398438C13.067 0.524666 13.1645 0.674964 13.2314 0.839844C13.2984 1.00483 13.333 1.18179 13.333 1.36035V32.6396C13.333 33.0003 13.1924 33.3465 12.9424 33.6016C12.6924 33.8565 12.3535 34 12 34C11.6465 34 11.3076 33.8565 11.0576 33.6016C10.8076 33.3465 10.667 33.0003 10.667 32.6396V1.36035C10.667 1.18179 10.7016 1.00482 10.7686 0.839844C10.8356 0.674828 10.9338 0.524731 11.0576 0.398438C11.1814 0.272212 11.3285 0.171826 11.4902 0.103516C11.6519 0.0352914 11.825 -2.38079e-05 12 0ZM6.66699 6.13379C6.84193 6.1338 7.01512 6.1684 7.17676 6.23633C7.33841 6.30429 7.48562 6.40374 7.60938 6.5293C7.73315 6.65495 7.83144 6.80458 7.89844 6.96875C7.96543 7.13299 8.00003 7.30954 8 7.4873V26.5127C8 26.8716 7.85931 27.2159 7.60938 27.4697C7.3594 27.7235 7.02049 27.8661 6.66699 27.8662C6.31337 27.8662 5.97368 27.7236 5.72363 27.4697C5.4738 27.2159 5.33301 26.8715 5.33301 26.5127V7.4873C5.33298 7.30954 5.36757 7.13299 5.43457 6.96875C5.50157 6.80454 5.59983 6.65498 5.72363 6.5293C5.84739 6.40369 5.99458 6.30432 6.15625 6.23633C6.31803 6.16831 6.49189 6.13376 6.66699 6.13379ZM17.333 6.13379C17.5081 6.13376 17.682 6.16831 17.8438 6.23633C18.0054 6.30432 18.1526 6.40369 18.2764 6.5293C18.4002 6.65499 18.4984 6.80453 18.5654 6.96875C18.6324 7.13299 18.667 7.30954 18.667 7.4873V26.5127C18.667 26.8715 18.5262 27.2159 18.2764 27.4697C18.0263 27.7236 17.6866 27.8662 17.333 27.8662C16.9795 27.8661 16.6406 27.7235 16.3906 27.4697C16.1407 27.2159 16 26.8716 16 26.5127V7.4873C16 7.30954 16.0346 7.13299 16.1016 6.96875C16.1686 6.80459 16.2669 6.65495 16.3906 6.5293C16.5144 6.40375 16.6616 6.30429 16.8232 6.23633C16.9849 6.1684 17.1581 6.1338 17.333 6.13379ZM28 6.13379C28.1751 6.13376 28.349 6.16831 28.5107 6.23633C28.6724 6.30434 28.8196 6.40369 28.9434 6.5293C29.0671 6.65492 29.1645 6.80463 29.2314 6.96875C29.2984 7.13299 29.333 7.30954 29.333 7.4873V26.5127C29.333 26.8717 29.1924 27.2159 28.9424 27.4697C28.6923 27.7236 28.3536 27.8662 28 27.8662C27.6464 27.8662 27.3077 27.7236 27.0576 27.4697C26.8076 27.2159 26.667 26.8717 26.667 26.5127V7.4873C26.667 7.30954 26.7016 7.13299 26.7686 6.96875C26.8355 6.80462 26.9339 6.65493 27.0576 6.5293C27.1813 6.40381 27.3286 6.30426 27.4902 6.23633C27.6519 6.16843 27.8251 6.13376 28 6.13379ZM1.33301 11.333C1.50811 11.333 1.68197 11.3686 1.84375 11.4365C2.00542 11.5044 2.15262 11.6041 2.27637 11.7295C2.39997 11.8548 2.49849 12.0033 2.56543 12.167C2.63243 12.3309 2.66702 12.5071 2.66699 12.6846V21.3154C2.66699 21.4928 2.63244 21.6691 2.56543 21.833C2.49842 21.9969 2.40015 22.1461 2.27637 22.2715C2.15266 22.3968 2.00535 22.4956 1.84375 22.5635C1.68198 22.6314 1.5081 22.667 1.33301 22.667C1.15801 22.667 0.984919 22.6313 0.823242 22.5635C0.661599 22.4956 0.514377 22.3968 0.390625 22.2715C0.266875 22.1461 0.168566 21.9968 0.101562 21.833C0.0345562 21.6691 -7.37974e-09 21.4928 0 21.3154V12.6846C-2.79293e-05 12.5071 0.0345661 12.3309 0.101562 12.167C0.168533 12.0033 0.266961 11.8548 0.390625 11.7295C0.514442 11.604 0.661462 11.5044 0.823242 11.4365C0.984913 11.3687 1.15803 11.333 1.33301 11.333ZM22.667 11.333C22.842 11.333 23.0151 11.3687 23.1768 11.4365C23.3385 11.5044 23.4856 11.604 23.6094 11.7295C23.733 11.8548 23.8315 12.0033 23.8984 12.167C23.9654 12.3309 24 12.5071 24 12.6846V21.3154C24 21.6737 23.8594 22.0181 23.6094 22.2715C23.3594 22.5246 23.0204 22.6669 22.667 22.667C22.3134 22.667 21.9737 22.5248 21.7236 22.2715C21.4736 22.0181 21.333 21.6737 21.333 21.3154V12.6846C21.333 12.5071 21.3676 12.3309 21.4346 12.167C21.5015 12.0033 21.6 11.8548 21.7236 11.7295C21.8474 11.6041 21.9946 11.5044 22.1562 11.4365C22.318 11.3686 22.4919 11.333 22.667 11.333ZM33.333 11.333C33.5081 11.333 33.682 11.3686 33.8438 11.4365C34.0054 11.5044 34.1526 11.6041 34.2764 11.7295C34.4 11.8548 34.4985 12.0033 34.5654 12.167C34.6324 12.3309 34.667 12.5071 34.667 12.6846V21.3154C34.667 21.6737 34.5264 22.0181 34.2764 22.2715C34.0263 22.5248 33.6866 22.667 33.333 22.667C32.9796 22.6669 32.6406 22.5246 32.3906 22.2715C32.1406 22.0181 32 21.6737 32 21.3154V12.6846C32 12.5071 32.0346 12.3309 32.1016 12.167C32.1685 12.0033 32.267 11.8548 32.3906 11.7295C32.5144 11.604 32.6615 11.5044 32.8232 11.4365C32.9849 11.3687 33.158 11.333 33.333 11.333ZM38.667 15.5996C39.4032 15.5998 40 16.1973 40 16.9336C39.9999 17.6697 39.4031 18.2664 38.667 18.2666C37.9307 18.2666 37.3331 17.6699 37.333 16.9336C37.333 16.1972 37.9306 15.5996 38.667 15.5996Z" fill="#434343"/>
<path d="M12 0C12.1751 -2.84879e-05 12.349 0.0351794 12.5107 0.103516C12.6724 0.171848 12.8196 0.272244 12.9434 0.398438C13.067 0.524666 13.1645 0.674964 13.2314 0.839844C13.2984 1.00483 13.333 1.18179 13.333 1.36035V32.6396C13.333 33.0003 13.1924 33.3465 12.9424 33.6016C12.6924 33.8565 12.3535 34 12 34C11.6465 34 11.3076 33.8565 11.0576 33.6016C10.8076 33.3465 10.667 33.0003 10.667 32.6396V1.36035C10.667 1.18179 10.7016 1.00482 10.7686 0.839844C10.8356 0.674828 10.9338 0.524731 11.0576 0.398438C11.1814 0.272212 11.3285 0.171826 11.4902 0.103516C11.6519 0.0352914 11.825 -2.38079e-05 12 0ZM6.66699 6.13379C6.84193 6.1338 7.01512 6.1684 7.17676 6.23633C7.33841 6.30429 7.48562 6.40374 7.60938 6.5293C7.73315 6.65495 7.83144 6.80458 7.89844 6.96875C7.96543 7.13299 8.00003 7.30954 8 7.4873V26.5127C8 26.8716 7.85931 27.2159 7.60938 27.4697C7.3594 27.7235 7.02049 27.8661 6.66699 27.8662C6.31337 27.8662 5.97368 27.7236 5.72363 27.4697C5.4738 27.2159 5.33301 26.8715 5.33301 26.5127V7.4873C5.33298 7.30954 5.36757 7.13299 5.43457 6.96875C5.50157 6.80454 5.59983 6.65498 5.72363 6.5293C5.84739 6.40369 5.99458 6.30432 6.15625 6.23633C6.31803 6.16831 6.49189 6.13376 6.66699 6.13379ZM17.333 6.13379C17.5081 6.13376 17.682 6.16831 17.8438 6.23633C18.0054 6.30432 18.1526 6.40369 18.2764 6.5293C18.4002 6.65499 18.4984 6.80453 18.5654 6.96875C18.6324 7.13299 18.667 7.30954 18.667 7.4873V26.5127C18.667 26.8715 18.5262 27.2159 18.2764 27.4697C18.0263 27.7236 17.6866 27.8662 17.333 27.8662C16.9795 27.8661 16.6406 27.7235 16.3906 27.4697C16.1407 27.2159 16 26.8716 16 26.5127V7.4873C16 7.30954 16.0346 7.13299 16.1016 6.96875C16.1686 6.80459 16.2669 6.65495 16.3906 6.5293C16.5144 6.40375 16.6616 6.30429 16.8232 6.23633C16.9849 6.1684 17.1581 6.1338 17.333 6.13379ZM28 6.13379C28.1751 6.13376 28.349 6.16831 28.5107 6.23633C28.6724 6.30434 28.8196 6.40369 28.9434 6.5293C29.0671 6.65492 29.1645 6.80463 29.2314 6.96875C29.2984 7.13299 29.333 7.30954 29.333 7.4873V26.5127C29.333 26.8717 29.1924 27.2159 28.9424 27.4697C28.6923 27.7236 28.3536 27.8662 28 27.8662C27.6464 27.8662 27.3077 27.7236 27.0576 27.4697C26.8076 27.2159 26.667 26.8717 26.667 26.5127V7.4873C26.667 7.30954 26.7016 7.13299 26.7686 6.96875C26.8355 6.80462 26.9339 6.65493 27.0576 6.5293C27.1813 6.40381 27.3286 6.30426 27.4902 6.23633C27.6519 6.16843 27.8251 6.13376 28 6.13379ZM1.33301 11.333C1.50811 11.333 1.68197 11.3686 1.84375 11.4365C2.00542 11.5044 2.15262 11.6041 2.27637 11.7295C2.39997 11.8548 2.49849 12.0033 2.56543 12.167C2.63243 12.3309 2.66702 12.5071 2.66699 12.6846V21.3154C2.66699 21.4928 2.63244 21.6691 2.56543 21.833C2.49842 21.9969 2.40015 22.1461 2.27637 22.2715C2.15266 22.3968 2.00535 22.4956 1.84375 22.5635C1.68198 22.6314 1.5081 22.667 1.33301 22.667C1.15801 22.667 0.984919 22.6313 0.823242 22.5635C0.661599 22.4956 0.514377 22.3968 0.390625 22.2715C0.266875 22.1461 0.168566 21.9968 0.101562 21.833C0.0345562 21.6691 -7.37974e-09 21.4928 0 21.3154V12.6846C-2.79293e-05 12.5071 0.0345661 12.3309 0.101562 12.167C0.168533 12.0033 0.266961 11.8548 0.390625 11.7295C0.514442 11.604 0.661462 11.5044 0.823242 11.4365C0.984913 11.3687 1.15803 11.333 1.33301 11.333ZM22.667 11.333C22.842 11.333 23.0151 11.3687 23.1768 11.4365C23.3385 11.5044 23.4856 11.604 23.6094 11.7295C23.733 11.8548 23.8315 12.0033 23.8984 12.167C23.9654 12.3309 24 12.5071 24 12.6846V21.3154C24 21.6737 23.8594 22.0181 23.6094 22.2715C23.3594 22.5246 23.0204 22.6669 22.667 22.667C22.3134 22.667 21.9737 22.5248 21.7236 22.2715C21.4736 22.0181 21.333 21.6737 21.333 21.3154V12.6846C21.333 12.5071 21.3676 12.3309 21.4346 12.167C21.5015 12.0033 21.6 11.8548 21.7236 11.7295C21.8474 11.6041 21.9946 11.5044 22.1562 11.4365C22.318 11.3686 22.4919 11.333 22.667 11.333ZM33.333 11.333C33.5081 11.333 33.682 11.3686 33.8438 11.4365C34.0054 11.5044 34.1526 11.6041 34.2764 11.7295C34.4 11.8548 34.4985 12.0033 34.5654 12.167C34.6324 12.3309 34.667 12.5071 34.667 12.6846V21.3154C34.667 21.6737 34.5264 22.0181 34.2764 22.2715C34.0263 22.5248 33.6866 22.667 33.333 22.667C32.9796 22.6669 32.6406 22.5246 32.3906 22.2715C32.1406 22.0181 32 21.6737 32 21.3154V12.6846C32 12.5071 32.0346 12.3309 32.1016 12.167C32.1685 12.0033 32.267 11.8548 32.3906 11.7295C32.5144 11.604 32.6615 11.5044 32.8232 11.4365C32.9849 11.3687 33.158 11.333 33.333 11.333ZM38.667 15.5996C39.4032 15.5998 40 16.1973 40 16.9336C39.9999 17.6697 39.4031 18.2664 38.667 18.2666C37.9307 18.2666 37.3331 17.6699 37.333 16.9336C37.333 16.1972 37.9306 15.5996 38.667 15.5996Z" fill="url(#paint0_linear_1_7465)"/>
<defs>
<linearGradient id="paint0_linear_1_7465" x1="27.0769" y1="58.0667" x2="18.3391" y2="25.1638" gradientUnits="userSpaceOnUse">
<stop stop-color="#9156F2"/>
<stop offset="1" stop-color="#8B50F2" stop-opacity="0.06"/>
</linearGradient>
</defs>
</svg>
